<svg width="1000" height="1084" viewBox="0 0 1000 1084" fill="none" xmlns="http://www.w3.org/2000/svg">
<path d="M82.8333 1001.12V1083.5H0.5V1001.12H82.8333ZM83.8333 1000.12V917.731H166.167V1000.12H83.8333ZM917.167 82.8846V0.5H999.5V82.8846H917.167ZM916.167 1000.12H833.833V917.731H916.167V1000.12ZM917.167 1001.12H999.5V1083.5H917.167V1001.12ZM0.5 82.8846V0.5H82.8333V82.8846H0.5ZM166.167 166.269H83.8333V83.8846H166.167V166.269ZM417.167 459.115H582.833V624.885H417.167V459.115ZM333.833 333.038V250.654H666.167V333.038H333.833ZM332.833 334.038V416.423H167.167V334.038H332.833ZM166.167 417.423V499.808H83.8333V417.423H166.167ZM83.8333 584.192H166.167V666.577H83.8333V584.192ZM167.167 667.577H332.833V749.962H167.167V667.577ZM667.167 749.962V667.577H832.833V749.962H667.167ZM833.833 666.577V584.192H916.167V666.577H833.833ZM833.833 499.808V417.423H916.167V499.808H833.833ZM832.833 416.423H667.167V334.038H832.833V416.423ZM917.167 500.808H999.5V583.192H917.167V500.808ZM666.167 750.962V833.346H333.833V750.962H666.167ZM82.8333 583.192H0.5V500.808H82.8333V583.192ZM833.833 83.8846H916.167V166.269H833.833V83.8846Z" stroke="url(#paint0_linear_25_1369)" stroke-opacity="0.1"/>
<defs>
<linearGradient id="paint0_linear_25_1369" x1="500" y1="689" x2="500" y2="373.5" gradientUnits="userSpaceOnUse">
<stop stop-color="#D4DAE9"/>
<stop offset="1" stop-color="#D4DAE9" stop-opacity="0"/>
</linearGradient>
</defs>
</svg>
