<svg viewBox="0 0 24 24" fill="none" xmlns="http://www.w3.org/2000/svg">
<g clip-path="url(#clip0_2013_1355)">
<path fill-rule="evenodd" clip-rule="evenodd" d="M7.45244 0.504815C7.75501 0.177368 8.19513 0 8.63524 0H11.551C11.9223 0 12.1149 0.436597 11.8536 0.695827L6.09083 6.79454H9.26791L12.5 10.1918H6.09083L12.5 17H8.62149C8.16762 17 7.74126 16.809 7.43868 16.4952L0.933238 9.59149C0.355587 8.97753 0.355587 8.02247 0.933238 7.40851L7.43868 0.504815H7.45244Z" fill="#2DA0B3"/>
<path fill-rule="evenodd" clip-rule="evenodd" d="M16.5476 23.4952C16.245 23.8226 15.8049 24 15.3648 24H12.449C12.0777 24 11.8851 23.5634 12.1464 23.3042L17.9092 17.2055H14.7321L11.5 13.8082H17.9092L11.5 7H15.3785C15.8324 7 16.2587 7.19101 16.5613 7.50482L23.0668 14.4085C23.6444 15.0225 23.6444 15.9775 23.0668 16.5915L16.5613 23.4952H16.5476Z" fill="#2DA0B3"/>
</g>
<defs>
<clipPath id="clip0_2013_1355">
<rect width="24" height="24" fill="white"/>
</clipPath>
</defs>
</svg>
