<svg viewBox="0 0 24 24" fill="none" xmlns="http://www.w3.org/2000/svg">
<path d="M17.1058 14.1676V8H18.3458V14.1676H17.1058Z" fill="#F7A600"/>
<path d="M2.6576 15.9991H0V9.83252H2.55099C3.78998 9.83252 4.51321 10.5086 4.51321 11.5651C4.51321 12.2498 4.0493 12.6906 3.72755 12.8385C4.11077 13.0114 4.60157 13.4013 4.60157 14.2244C4.60157 15.3749 3.78998 15.9991 2.6576 15.9991ZM2.45302 10.9072H1.23899V12.3276H2.45302C2.97935 12.3276 3.27421 12.0414 3.27421 11.6169C3.27421 11.1924 2.97935 10.9072 2.45302 10.9072ZM2.53274 13.41H1.23899V14.9254H2.53178C3.09461 14.9254 3.36161 14.5787 3.36161 14.1629C3.36161 13.747 3.09365 13.41 2.53274 13.41Z" fill="currentColor"/>
<path d="M8.38291 13.4695V15.9991H7.1516V13.4695L5.24316 9.83252H6.59069L7.7759 12.318L8.94478 9.83252H10.2913L8.38291 13.4695Z" fill="currentColor"/>
<path d="M13.8057 15.9991H11.1481V9.83252H13.6991C14.9381 9.83252 15.6613 10.5086 15.6613 11.5651C15.6613 12.2498 15.1974 12.6906 14.8756 12.8385C15.2588 13.0114 15.7496 13.4013 15.7496 14.2244C15.7496 15.3749 14.939 15.9991 13.8057 15.9991ZM13.6011 10.9072H12.388V12.3276H13.6011C14.1274 12.3276 14.4223 12.0414 14.4223 11.6169C14.4213 11.1924 14.1265 10.9072 13.6011 10.9072ZM13.6808 13.41H12.388V14.9254H13.6808C14.2436 14.9254 14.5106 14.5787 14.5106 14.1629C14.5106 13.747 14.2427 13.41 13.6808 13.41Z" fill="currentColor"/>
<path d="M22.3413 10.9072V16.0001H21.1013V10.9072H19.4426V9.83252H24V10.9072H22.3413Z" fill="currentColor"/>
</svg>
