<svg viewBox="0 0 20 20" fill="currentColor" xmlns="http://www.w3.org/2000/svg">
<path d="M0 4H4V8H0V4Z" />
<path d="M0 8H4V12H0V8Z" />
<path d="M0 12H4V16H0V12Z" />
<path d="M4 0H8V4H4V0Z" />
<path d="M4 4H8V8H4V4Z" />
<path d="M4 8H8V12H4V8Z" />
<path d="M4 12H8V16H4V12Z" />
<path d="M4 16H8V20H4V16Z" />
<path d="M8 0H12V4H8V0Z" />
<path d="M8 8H12V12H8V8Z" />
<path d="M12 0H16V4H12V0Z" />
<path d="M12 4H16V8H12V4Z" />
<path d="M12 8H16V12H12V8Z" />
<path d="M12 12H16V16H12V12Z" />
<path d="M12 16H16V20H12V16Z" />
<path d="M16 4H20V8H16V4Z" />
<path d="M16 8H20V12H16V8Z" />
<path d="M16 12H20V16H16V12Z" />
</svg>
