<svg viewBox="0 0 90 90" fill="none" xmlns="http://www.w3.org/2000/svg">
<path fill-rule="evenodd" clip-rule="evenodd" d="M10.5826 87.0523C10 85.8973 10 84.3842 10 81.3598V8.63998C10 5.61561 10 4.10437 10.5826 2.94937C11.0964 1.93312 11.9136 1.10625 12.9206 0.588749C14.0654 0 15.5639 0 18.5608 0H46.5608C54.0234 0 57.7556 0 60.8177 0.828748C69.1254 3.07499 75.6163 9.62435 77.8426 18.0112C78.6616 21.1012 78.6616 24.8681 78.6616 32.3999C78.6616 37.303 76.4614 39.1012 74.585 40.6312C73.1908 41.7693 71.9753 42.7612 71.9753 44.7768C71.9753 46.7624 73.3918 47.7543 75.0336 48.9055C77.3009 50.4936 80 52.3836 80 57.6018C80 65.1205 80 68.8817 79.1828 71.9661C76.9584 80.3586 70.4656 86.9136 62.1524 89.1598C59.0959 89.9867 55.3711 89.9886 47.9197 89.9904L18.5627 89.9998C15.5658 90.0017 14.0673 90.0017 12.9225 89.4129C11.9154 88.8954 11.0964 88.0686 10.5826 87.0523ZM49.9096 29.5124C51.5886 26.8499 53.0443 24.5456 53.0443 21.6C53.0443 15.6356 48.2436 10.8 42.3223 10.8C36.3992 10.8 31.5985 15.8625 31.5985 21.6C31.5985 24.5456 33.0932 26.8499 34.8188 29.5124C37.181 33.1518 39.975 37.4624 39.975 45.0018C39.975 52.5393 37.181 56.8499 34.8188 60.4911C33.0932 63.1517 31.5985 65.4561 31.5985 68.4017C31.5985 74.3661 36.3992 79.2017 42.3223 79.2017C48.2436 79.2017 53.0443 74.3661 53.0443 68.4017C53.0443 65.4561 51.5886 63.1517 49.9096 60.4911C47.6107 56.8499 44.8911 52.5393 44.8911 45.0018C44.8911 37.4624 47.6107 33.1518 49.9096 29.5124Z" fill="#FFD634"/>
</svg>
