<svg viewBox="0 0 16 16" fill="currentColor" xmlns="http://www.w3.org/2000/svg">
<path d="M5.17157 3.75738L6.58579 5.1716L5.17157 6.58581L3.75736 5.1716L5.17157 3.75738Z" />
<path d="M6.58579 5.1716L8 6.58581L6.58579 8.00002L5.17157 6.58581L6.58579 5.1716Z" />
<path d="M10.8284 3.75738L12.2426 5.1716L10.8284 6.58581L9.41421 5.1716L10.8284 3.75738Z" />
<path d="M9.41421 5.1716L10.8284 6.58581L9.41421 8.00002L8 6.58581L9.41421 5.1716Z" />
<path d="M8 6.58581L9.41421 8.00002L8 9.41423L6.58579 8.00002L8 6.58581Z" />
<path d="M6.58579 8.00002L8 9.41423L6.58579 10.8284L5.17157 9.41424L6.58579 8.00002Z" />
<path d="M5.17157 9.41424L6.58579 10.8284L5.17157 12.2427L3.75736 10.8284L5.17157 9.41424Z" />
<path d="M9.41421 8.00002L10.8284 9.41424L9.41421 10.8284L8 9.41423L9.41421 8.00002Z" />
<path d="M10.8284 9.41424L12.2426 10.8284L10.8284 12.2427L9.41421 10.8284L10.8284 9.41424Z" />
</svg>
