<svg viewBox="0 0 12 12" fill="currentColor" xmlns="http://www.w3.org/2000/svg">
<path d="M0 2.40002L-1.04907e-07 4.80002L2.4 4.80002L2.4 2.40002L0 2.40002Z"/>
<path d="M9.6 2.40003L9.6 4.80002L12 4.80003L12 2.40003L9.6 2.40003Z"/>
<path d="M2.4 4.80002L2.4 7.20002L4.8 7.20002L4.8 4.80002L2.4 4.80002Z"/>
<path d="M4.8 4.80002L4.8 7.20002L7.2 7.20002L7.2 4.80002L4.8 4.80002Z"/>
<path d="M7.2 4.80002L7.2 7.20002L9.6 7.20002L9.6 4.80002L7.2 4.80002Z"/>
<path d="M4.8 7.20002L4.8 9.60002L7.2 9.60002L7.2 7.20002L4.8 7.20002Z"/>
</svg>
