<svg viewBox="0 0 24 24" fill="none" xmlns="http://www.w3.org/2000/svg">
<path d="M24 2.5001C19.39 2.48371 14.8844 4.47275 11.8014 7.86798C10.6919 9.01004 9.95225 10.4089 9.06248 11.704C6.93142 14.6056 3.60485 16.2832 0 16.2814V21.4999C4.60813 21.5181 9.11374 19.5218 12.1986 16.1265C13.3026 14.9845 14.0532 13.5874 14.9375 12.2905C17.0686 9.39255 20.3951 7.71498 24 7.7168V2.5001Z" fill="url(#paint0_linear_2012_1236)"/>
<path d="M23.9963 16.2725C20.3933 16.2725 17.0649 14.5974 14.9339 11.7005C14.0532 10.4041 13.3008 9.00941 12.1986 7.86596C9.12106 4.47205 4.60813 2.48012 0 2.50015V7.71666C3.99115 7.69663 7.69853 9.8324 9.70509 13.2627C10.2946 14.286 10.9976 15.2474 11.8014 16.1286C14.8826 19.5207 19.3919 21.5163 24 21.4999L23.9963 16.2743V16.2725Z" fill="#2A54FF"/>
<defs>
<linearGradient id="paint0_linear_2012_1236" x1="1.569" y1="19.6438" x2="22.4489" y2="4.1796" gradientUnits="userSpaceOnUse">
<stop stop-color="#2A54FF"/>
<stop offset="0.52" stop-color="#2143CB"/>
<stop offset="1" stop-color="#2A54FF"/>
</linearGradient>
</defs>
</svg>
