<svg viewBox="0 0 24 25" fill="none" xmlns="http://www.w3.org/2000/svg">
<path d="M14.2075 7.38186C14.2075 3.93816 12.5474 0.971268 11.2759 -3.45791e-05C11.2759 -3.45791e-05 11.1876 -0.0530147 11.1876 0.0882656C11.0817 6.7461 7.70859 8.56509 5.83663 10.9845C1.54524 16.6004 5.53641 22.7461 9.59822 23.8763C11.8764 24.5121 9.06841 22.7461 8.71521 19.0375C8.29137 14.5342 14.2075 11.1081 14.2075 7.38186Z" fill="white"/>
<path d="M16.4327 9.65997C16.415 9.64231 16.3797 9.64231 16.3444 9.65997C16.3444 9.65997 16.3444 9.65997 16.3267 9.67763C16.2561 10.5077 15.3377 12.309 14.1898 13.9514C10.287 19.5319 12.5121 22.2163 13.766 23.6644C14.4901 24.5121 13.766 23.6644 15.585 22.799C15.7263 22.7284 19.117 20.9271 19.4879 16.8476C19.8587 12.8741 17.3333 10.384 16.4327 9.65997Z" fill="#059BDC"/>
</svg>
