<svg id="svg-kraken" viewBox="0 0 24 24" fill="none" xmlns="http://www.w3.org/2000/svg">
<path d="M11.2461 2.52464C13.3233 2.38957 15.4396 2.81167 17.3102 3.74593C20.0631 5.10791 22.2576 7.573 23.2962 10.4827C23.7541 11.7659 23.9998 13.1279 23.9998 14.4899V19.5551C23.9998 19.7634 24.0054 19.9716 23.9551 20.1742C23.8435 20.6864 23.4805 21.1366 23.0059 21.3505C22.6764 21.5081 22.2967 21.5249 21.9393 21.4687C21.1743 21.328 20.5769 20.6019 20.5713 19.8196C20.5657 18.2494 20.5713 16.6792 20.5713 15.1033C20.5824 14.6587 20.588 14.1803 20.3479 13.7864C19.957 13.0603 19.0189 12.717 18.2595 13.0266C17.6174 13.2573 17.1539 13.9102 17.1483 14.5968C17.1427 16.1952 17.1483 17.7879 17.1483 19.3807C17.1483 19.6789 17.1651 19.9829 17.0757 20.2699C16.9138 20.8327 16.4503 21.2886 15.8919 21.4405C15.1604 21.6431 14.3172 21.3167 13.9487 20.6357C13.6974 20.2249 13.7142 19.7296 13.7198 19.2681C13.7142 17.6866 13.7253 16.0995 13.7142 14.518C13.6974 13.7132 13.0441 12.9872 12.2512 12.8859C11.7375 12.8071 11.1958 12.9816 10.8217 13.3474C10.4867 13.6682 10.2912 14.1297 10.2912 14.5968V19.2118C10.2856 19.6001 10.3303 19.9997 10.1851 20.3656C9.95618 21.024 9.29728 21.5081 8.59928 21.4912C7.88454 21.5306 7.19213 21.0353 6.96319 20.3599C6.83475 20.0279 6.86267 19.6677 6.86267 19.3187C6.86267 17.726 6.86826 16.1333 6.86267 14.5405C6.85709 13.7526 6.24844 13.0322 5.48344 12.8915C4.78544 12.7396 4.01486 13.0941 3.66865 13.7245C3.51789 13.989 3.43971 14.2929 3.43971 14.5912V19.7634C3.4453 20.2643 3.21636 20.7652 2.83106 21.086C2.25033 21.5981 1.31223 21.6262 0.703578 21.1535C0.262446 20.8496 0 20.3262 0 19.7859V14.5462C0.00558395 12.5651 0.502555 10.5896 1.44066 8.84494C2.20566 7.42104 3.26103 6.15473 4.523 5.14168C6.42154 3.5996 8.80589 2.67097 11.2461 2.52464Z" fill="#0DA8FF"/>
</svg>
