<svg viewBox="0 0 24 24" fill="none" xmlns="http://www.w3.org/2000/svg">
<g clip-path="url(#clip0_2013_1459)">
<path d="M12 24C18.6274 24 24 18.6274 24 12C24 5.37258 18.6274 0 12 0C5.37258 0 0 5.37258 0 12C0 18.6274 5.37258 24 12 24Z" fill="#0080CA"/>
<path d="M15.1749 13.576C16.0987 13.576 16.8475 12.8183 16.8475 11.8837C16.8475 10.9491 16.0987 10.1914 15.1749 10.1914C14.2511 10.1914 13.5023 10.9491 13.5023 11.8837C13.5023 12.8183 14.2511 13.576 15.1749 13.576Z" fill="white"/>
<path d="M19.7472 14.3836L19.6981 14.3066L19.685 14.2853C19.5015 13.997 19.4458 13.9364 19.3573 13.8037C18.1336 11.9197 18.8331 10.7091 19.3835 10.0915C19.4507 10.0161 19.5129 9.92765 19.5703 9.85884C19.6542 9.7618 19.7262 9.65511 19.7849 9.54103L19.7947 9.52464C19.9059 9.30258 19.9621 9.05705 19.9585 8.80874C19.922 8.40123 19.7343 8.02215 19.4323 7.74607C19.1303 7.46999 18.736 7.31689 18.3269 7.31689C17.9177 7.31689 17.5234 7.46999 17.2214 7.74607C16.9195 8.02215 16.7317 8.40123 16.6952 8.80874C16.6951 9.08031 16.7639 9.34746 16.8951 9.58526C16.9147 9.62457 17.0081 9.74908 17.0179 9.77038C17.0378 9.80159 17.0609 9.83069 17.0867 9.8572C17.1436 9.92766 17.2049 9.99441 17.2702 10.0571C17.4327 10.2378 17.5744 10.4362 17.6929 10.6485C17.9277 11.1296 18.0251 11.6662 17.9745 12.1992C17.924 12.7322 17.7273 13.2409 17.4062 13.6694L16.9999 14.2526C16.987 14.2694 16.9749 14.2869 16.9639 14.305L16.954 14.3181C16.7892 14.5791 16.7044 14.8826 16.7099 15.1913C16.7465 15.5988 16.9342 15.9778 17.2362 16.2539C17.5381 16.53 17.9325 16.6831 18.3416 16.6831C18.7507 16.6831 19.1451 16.53 19.447 16.2539C19.749 15.9778 19.9367 15.5988 19.9733 15.1913C19.9729 14.9071 19.8966 14.6283 19.7521 14.3836H19.7472Z" fill="white"/>
<path d="M13.4122 14.3837L13.3647 14.3067L13.3499 14.2854C13.1664 13.9971 13.1107 13.9365 13.0223 13.8038C11.7985 11.9198 12.498 10.7092 13.0485 10.0916C13.1157 10.0162 13.1779 9.92773 13.2352 9.85892C13.3192 9.76188 13.3912 9.65519 13.4499 9.54111L13.4597 9.52473C13.5692 9.30205 13.6252 9.05694 13.6235 8.80882C13.6282 8.55686 13.5748 8.30721 13.4673 8.07929C13.3598 7.85137 13.2011 7.65132 13.0037 7.4947C12.8063 7.33808 12.5754 7.22912 12.329 7.17629C12.0826 7.12347 11.8273 7.12819 11.5831 7.19011C11.3388 7.25203 11.1121 7.36947 10.9206 7.53329C10.7291 7.69711 10.578 7.9029 10.479 8.13465C10.38 8.3664 10.3358 8.61786 10.3499 8.86947C10.3639 9.12108 10.4359 9.36605 10.56 9.58534C10.5797 9.62466 10.6731 9.74916 10.6829 9.77046C10.7028 9.80167 10.7259 9.83077 10.7517 9.85728C10.8085 9.92774 10.8698 9.99449 10.9352 10.0571C11.0993 10.2377 11.2427 10.4361 11.3628 10.6485C11.5985 11.129 11.6972 11.6652 11.6481 12.1981C11.599 12.7311 11.4039 13.2402 11.0843 13.6694C10.9855 13.8094 10.876 13.9414 10.7566 14.0642L10.7288 14.0921C10.5466 14.2565 10.3466 14.3999 10.1325 14.5197C8.42542 15.3339 7.0444 14.2084 7.0444 14.2084L6.90515 14.0937C6.80177 14.0133 6.71356 13.9151 6.64467 13.8038C5.42092 11.9198 6.12044 10.7092 6.67088 10.0916C6.73805 10.0162 6.8003 9.92773 6.85764 9.85892C6.94154 9.76188 7.01358 9.65519 7.07225 9.54111L7.08208 9.52473C7.19519 9.30304 7.25414 9.0577 7.25409 8.80882C7.21753 8.40131 7.02981 8.02224 6.72785 7.74615C6.4259 7.47007 6.03156 7.31698 5.62242 7.31698C5.21327 7.31698 4.81894 7.47007 4.51698 7.74615C4.21502 8.02224 4.0273 8.40131 3.99074 8.80882C3.99069 9.08039 4.05945 9.34754 4.19061 9.58534C4.21027 9.62466 4.30365 9.74916 4.31348 9.77046C4.33339 9.80167 4.35644 9.83077 4.38228 9.85728C4.43913 9.92774 4.50042 9.99449 4.56576 10.0571C4.72709 10.2381 4.86775 10.4364 4.98515 10.6485C5.21993 11.1297 5.3174 11.6663 5.26682 12.1993C5.21623 12.7323 5.01956 13.241 4.69846 13.6694L4.4904 13.9643C4.33037 14.1173 4.20301 14.3011 4.116 14.5047C4.029 14.7083 3.98416 14.9274 3.98419 15.1488V15.1864C3.98999 15.5077 4.09013 15.8201 4.27215 16.0849C4.45417 16.3497 4.71004 16.5551 5.0079 16.6756C5.30577 16.796 5.63248 16.8263 5.94739 16.7625C6.2623 16.6987 6.5515 16.5437 6.779 16.3168C6.85928 16.2611 6.9117 16.2218 6.98542 16.1743C8.86938 14.9505 10.08 15.65 10.6993 16.2005C10.7484 16.2447 10.8008 16.2873 10.8533 16.3266C11.0822 16.5511 11.3721 16.7035 11.6868 16.7648C12.0016 16.8262 12.3274 16.7938 12.6239 16.6717C12.9205 16.5496 13.1746 16.3432 13.3549 16.078C13.5352 15.8128 13.6337 15.5005 13.6383 15.1799C13.6379 14.8958 13.5615 14.6169 13.4171 14.3722L13.4122 14.3837Z" fill="white"/>
</g>
<defs>
<clipPath id="clip0_2013_1459">
<rect width="24" height="24" fill="white"/>
</clipPath>
</defs>
</svg>
