<svg viewBox="0 0 24 24" fill="none" xmlns="http://www.w3.org/2000/svg">
<path d="M16.5333 0H23.4666C23.7612 0 24 0.238721 24 0.533373V7.46669C24 7.76124 23.7612 8.00007 23.4666 8.00007H16.5333C16.2387 8.00007 16 7.76124 16 7.46669V0.533373C16 0.238721 16.2387 0 16.5333 0Z" fill="white"/>
<path d="M8.53009 8.00028H15.4634C15.7579 8.00028 15.9967 8.23901 15.9967 8.53355V15.467C15.9967 15.7615 15.7579 16.0004 15.4634 16.0004H8.53009C8.23554 16.0004 7.99672 15.7615 7.99672 15.467V8.53355C7.99672 8.23901 8.23554 8.00028 8.53009 8.00028Z" fill="white"/>
<path d="M7.46667 0H0.533264C0.23872 0 0 0.238721 0 0.533373V7.46669C0 7.76124 0.23872 8.00007 0.533264 8.00007H7.46667C7.76121 8.00007 8.00004 7.76124 8.00004 7.46669V0.533373C8.00004 0.238721 7.76121 0 7.46667 0Z" fill="white"/>
<path d="M16.5333 15.9999H23.4666C23.7612 15.9999 24 16.2386 24 16.5332V23.4666C24 23.7612 23.7612 24 23.4666 24H16.5333C16.2387 24 16 23.7612 16 23.4666V16.5332C16 16.2386 16.2387 15.9999 16.5333 15.9999Z" fill="white"/>
<path d="M7.46667 15.9999H0.533264C0.23872 15.9999 0 16.2386 0 16.5332V23.4666C0 23.7612 0.23872 24 0.533264 24H7.46667C7.76121 24 8.00004 23.7612 8.00004 23.4666V16.5332C8.00004 16.2386 7.76121 15.9999 7.46667 15.9999Z" fill="white"/>
</svg>
